<svg width="400" height="400" viewBox="0 0 400 400" fill="none" xmlns="http://www.w3.org/2000/svg">
<rect width="400" height="400" rx="50" fill="#191919"/>
<path d="M94.2627 270.016L199.349 337.458C199.736 337.707 200.163 337.693 200.55 337.444L305.564 270.016C305.898 269.802 306.099 269.433 306.099 269.038L306.186 204.24C306.186 202.616 306.928 201.06 308.301 200.178L335 183.201V282.662C335 284.286 334.203 285.79 332.83 286.671L202.528 370.233C200.937 371.256 198.89 371.256 197.299 370.233L67.1153 286.681C65.742 285.799 65 284.329 65 282.705V116.462C65 114.839 65.7965 113.292 67.1698 112.41L197.299 28.7619C198.89 27.7398 200.969 27.7492 202.56 28.7712L332.83 112.41C334.203 113.292 335 114.796 335 116.419V142.33C335 143.954 334.203 145.501 332.83 146.383L254.602 196.576C253.823 197.076 252.914 197.342 251.987 197.342H200.39L299.937 133.363C301.31 132.481 302.107 130.977 302.107 129.353C302.107 127.729 301.31 126.312 299.937 125.43L200.651 61.6232C200.264 61.3748 199.664 61.3026 199.277 61.5511L94.2627 129.066C93.9289 129.28 93.7271 129.648 93.7271 130.043V269.038C93.7271 269.433 93.9289 269.802 94.2627 270.016ZM199.277 308.559C199.664 308.807 200.264 308.907 200.651 308.659L281.799 256.493V241.834H200.39V253.043H234.152L200.651 274.6C200.264 274.848 199.736 274.848 199.349 274.6L147.45 241.317C147.116 241.103 146.929 240.634 146.929 240.239V158.756C146.929 158.361 147.116 157.979 147.45 157.765L199.277 124.496C199.664 124.247 200.163 124.247 200.55 124.496L241.442 150.694C241.829 150.943 242.357 150.943 242.744 150.694L267.03 134.987C267.363 134.773 267.565 134.404 267.565 134.009C267.565 133.615 267.363 133.246 267.03 133.032L200.651 90.4225C200.264 90.1741 199.736 90.1741 199.349 90.4225L118.65 142.172C118.316 142.386 118.115 142.754 118.115 143.149V255.846C118.115 256.241 118.271 256.579 118.605 256.793L199.277 308.559Z" fill="url(#paint0_linear_2781_2810)" stroke="url(#paint1_linear_2781_2810)" stroke-width="0.6"/>
<defs>
<linearGradient id="paint0_linear_2781_2810" x1="337.31" y1="24.9985" x2="64.6988" y2="370.44" gradientUnits="userSpaceOnUse">
<stop stop-color="#B57720"/>
<stop offset="0.25" stop-color="#F9C36D"/>
<stop offset="0.379808" stop-color="#FDECC7"/>
<stop offset="0.557692" stop-color="#F9C36D"/>
<stop offset="1" stop-color="#CD8B2E"/>
</linearGradient>
<linearGradient id="paint1_linear_2781_2810" x1="337.31" y1="24.9985" x2="64.6988" y2="370.44" gradientUnits="userSpaceOnUse">
<stop stop-color="#C4742E"/>
<stop offset="0.206731" stop-color="#F9B86D"/>
<stop offset="0.471154" stop-color="#FDECC7"/>
<stop offset="0.735577" stop-color="#F9B86D"/>
<stop offset="1" stop-color="#C4742E"/>
</linearGradient>
</defs>
</svg>
