<?xml version="1.0" standalone="no"?>
<!DOCTYPE svg PUBLIC "-//W3C//DTD SVG 20010904//EN"
 "http://www.w3.org/TR/2001/REC-SVG-20010904/DTD/svg10.dtd">
<svg version="1.0" xmlns="http://www.w3.org/2000/svg"
 width="400.000000pt" height="400.000000pt" viewBox="0 0 400.000000 400.000000"
 preserveAspectRatio="xMidYMid meet">
<metadata>
Created by potrace 1.11, written by Peter Selinger 2001-2013
</metadata>
<g transform="translate(0.000000,400.000000) scale(0.100000,-0.100000)"
fill="#000000" stroke="none">
<path d="M0 2000 l0 -1630 1630 0 1630 0 0 350 0 350 -80 0 -80 0 0 -270 0
-270 -1470 0 -1470 0 0 1470 0 1470 1470 0 1470 0 0 -260 0 -260 80 0 80 0 0
340 0 340 -1630 0 -1630 0 0 -1630z"/>
<path d="M2342 2600 c-177 -36 -293 -173 -293 -344 0 -194 82 -276 354 -355
205 -60 246 -82 260 -140 8 -34 -15 -83 -49 -106 -24 -16 -46 -20 -124 -20
-111 1 -166 18 -273 89 l-67 44 -48 -56 c-26 -32 -49 -59 -52 -62 -3 -3 -15
-18 -27 -34 l-21 -30 47 -36 c133 -104 280 -151 459 -145 195 5 323 77 385
214 30 67 31 217 1 282 -47 102 -155 168 -374 229 -182 51 -230 88 -216 165
11 56 55 80 146 80 97 0 183 -29 275 -91 11 -8 22 -14 25 -14 3 0 35 43 70 96
l64 96 -24 19 c-53 40 -161 90 -236 108 -85 20 -213 25 -282 11z"/>
<path d="M760 2005 l0 -586 127 3 128 3 -1 367 c0 202 3 364 7 360 6 -7 54
-69 109 -141 14 -18 120 -157 236 -309 l211 -277 111 -3 112 -3 0 586 0 586
-127 -3 -128 -3 1 -356 0 -356 -21 26 c-19 23 -164 213 -434 569 l-93 122
-119 0 -119 0 0 -585z"/>
<path d="M3040 2471 l0 -119 178 0 177 1 0 -464 1 -464 129 -3 130 -3 -1 466
0 465 25 1 c14 0 92 0 174 0 l147 1 0 119 0 119 -480 0 -480 0 0 -119z"/>
</g>
</svg>
