<svg width="144" height="40" viewBox="0 0 144 40" fill="none" xmlns="http://www.w3.org/2000/svg">
<g clip-path="url(#clip0_27_1066)">
<path d="M6.6089 4.81942L16.9625 13.973C17.76 14.6802 18.7719 15.1041 19.8389 15.178C20.4775 15.225 21.1192 15.1457 21.7266 14.9447C22.3341 14.7437 22.8953 14.4251 23.3777 14.0073L26.3751 11.4137C25.8575 11.4801 25.3345 11.4944 24.8141 11.4566C22.8594 11.3198 21.0303 10.4505 19.6978 9.02514L10.2708 0.692278C9.9998 0.452743 9.6837 0.268752 9.34072 0.150894C8.99774 0.0330355 8.63465 -0.0163611 8.27234 0.00554704C7.91004 0.0274552 7.55569 0.120235 7.22967 0.278547C6.90366 0.436859 6.61243 0.657576 6.37274 0.927992C5.88655 1.47629 5.63854 2.19303 5.68278 2.92197C5.72702 3.65091 6.05991 4.33295 6.6089 4.81942Z" fill="url(#paint0_linear_27_1066)"/>
<path d="M19.6978 9.02409C21.0304 10.4494 22.8594 11.3189 24.8141 11.4562C25.3345 11.4943 25.8575 11.48 26.375 11.4134L31.032 7.3841C31.5865 6.90389 31.9271 6.22555 31.9793 5.49716C32.0315 4.76876 31.7911 4.04945 31.3106 3.49624C31.0741 3.22301 30.7854 2.99894 30.4611 2.83695C30.1369 2.67496 29.7835 2.57827 29.4214 2.55244C29.0593 2.52661 28.6956 2.57215 28.3513 2.68645C28.007 2.80075 27.6889 2.98153 27.4154 3.21838L20.196 9.46624L19.6978 9.02409Z" fill="url(#paint1_linear_27_1066)"/>
<path opacity="0.2" d="M19.6985 9.01572C21.0306 10.445 22.8606 11.3182 24.8177 11.4586C25.3498 11.4979 25.8718 11.4829 26.3808 11.4179L31.0262 7.39215C31.5821 6.91197 31.924 6.23317 31.9772 5.50388C32.0305 4.77458 31.7909 4.05398 31.3106 3.4993C31.0742 3.22547 30.7854 3.00077 30.461 2.83815C30.1366 2.67554 29.783 2.57821 29.4205 2.55178C29.0581 2.52536 28.6939 2.57035 28.349 2.68418C28.0042 2.79801 27.6854 2.97842 27.4111 3.21501L20.196 9.45858L19.6985 9.01572Z" fill="url(#paint2_linear_27_1066)"/>
<path d="M35.2397 6.55579L26.0712 16.8922C25.3614 17.6916 24.937 18.7008 24.8638 19.7637C24.7682 21.0486 25.1899 22.3188 26.0367 23.2958L28.6344 26.2887C28.5679 25.7718 28.5535 25.2497 28.5912 24.7301C28.7261 22.7841 29.5963 20.9602 31.0277 19.6229L39.3747 10.2108C39.8597 9.66192 40.1069 8.94538 40.0625 8.21677C40.0182 7.48817 39.6859 6.80635 39.1378 6.31937C38.8671 6.07921 38.5511 5.89468 38.208 5.77644C37.865 5.65821 37.5017 5.60862 37.1392 5.63054C36.7767 5.65246 36.4222 5.74545 36.0962 5.90415C35.7701 6.06284 35.479 6.28408 35.2397 6.55508V6.55579Z" fill="url(#paint3_linear_27_1066)"/>
<path opacity="0.2" d="M31.037 19.6235C29.6019 20.9605 28.7279 22.7853 28.5897 24.7335C28.5511 25.2541 28.5649 25.7771 28.6308 26.295L32.6628 30.9321C32.8989 31.2065 33.1876 31.4318 33.5121 31.5948C33.8365 31.7578 34.1904 31.8553 34.5531 31.8818C34.9158 31.9082 35.2802 31.863 35.6252 31.7488C35.9702 31.6346 36.289 31.4536 36.563 31.2164C37.1177 30.7355 37.4587 30.0569 37.512 29.328C37.5652 28.5991 37.3264 27.8788 36.8474 27.3235L30.5928 20.1185L31.037 19.6235Z" fill="url(#paint4_linear_27_1066)"/>
<path d="M31.0277 19.6216C29.5963 20.9592 28.7263 22.7833 28.5912 24.7294C28.553 25.2493 28.5675 25.7717 28.6344 26.2887L32.6707 30.938C32.907 31.2116 33.1956 31.436 33.5198 31.5981C33.844 31.7603 34.1975 31.8571 34.5597 31.8829C34.9218 31.9087 35.2856 31.8629 35.6298 31.7483C35.9741 31.6337 36.292 31.4525 36.5652 31.2152C37.1183 30.734 37.4577 30.0558 37.5097 29.3279C37.5618 28.6 37.3222 27.881 36.8431 27.3273L30.5849 20.118L31.0277 19.6223V19.6216Z" fill="url(#paint5_linear_27_1066)"/>
<path d="M4.82761 33.8164L13.9961 23.4799C14.706 22.6806 15.1304 21.6713 15.2035 20.6085C15.2992 19.3235 14.8774 18.0533 14.0306 17.0764L11.4329 14.0835C11.4984 14.5906 11.5142 15.1121 11.4761 15.6421C11.3413 17.5881 10.4711 19.412 9.03961 20.7492L0.692646 30.1621C0.207798 30.711 -0.0392624 31.4275 0.00508574 32.1561C0.0494339 32.8846 0.381612 33.5664 0.929526 34.0535C1.20033 34.2935 1.5164 34.4779 1.85947 34.596C2.20253 34.7142 2.5658 34.7637 2.92826 34.7417C3.29073 34.7197 3.64521 34.6267 3.97121 34.468C4.29722 34.3093 4.58829 34.088 4.82761 33.8171V33.8164Z" fill="url(#paint6_linear_27_1066)"/>
<path d="M9.0396 20.7514C10.4708 19.4139 11.3408 17.5902 11.4761 15.6442C11.5142 15.1128 11.4991 14.5928 11.4329 14.0849L7.39656 9.43566C7.16037 9.16204 6.87181 8.93761 6.5476 8.77536C6.22339 8.61311 5.86997 8.51626 5.50778 8.49042C5.14559 8.46458 4.78183 8.51026 4.43755 8.62481C4.09327 8.73937 3.77532 8.92053 3.50208 9.1578C2.949 9.63893 2.60958 10.3171 2.55754 11.0451C2.5055 11.773 2.74505 12.4919 3.22416 13.0457L9.4824 20.2549L9.0396 20.7514Z" fill="url(#paint7_linear_27_1066)"/>
<path d="M33.5829 35.1798L23.2293 26.0262C22.4321 25.3192 21.4204 24.8952 20.3537 24.8212C19.715 24.7743 19.0734 24.8536 18.4659 25.0545C17.8584 25.2555 17.2972 25.5741 16.8149 25.992L13.8168 28.5855C14.3348 28.5188 14.8583 28.5045 15.3792 28.5427C17.3337 28.6798 19.1626 29.5493 20.4948 30.9748L29.9224 39.307C30.1935 39.5464 30.5095 39.7303 30.8524 39.8481C31.1953 39.9659 31.5583 40.0152 31.9206 39.9933C32.2828 39.9714 32.637 39.8787 32.963 39.7204C33.2889 39.5622 33.5801 39.3415 33.8198 39.0712C34.306 38.5227 34.5539 37.8058 34.5095 37.0768C34.4651 36.3477 34.1321 35.6663 33.5829 35.1798Z" fill="url(#paint8_linear_27_1066)"/>
<path d="M20.494 30.9742C19.1614 29.5488 17.3324 28.6794 15.3777 28.542C14.857 28.5041 14.3338 28.5187 13.816 28.5856L9.15907 32.6142C8.60443 33.0945 8.26389 33.773 8.21182 34.5016C8.15975 35.2302 8.40037 35.9496 8.88115 36.5027C9.11772 36.7758 9.40644 36.9997 9.73066 37.1616C10.0549 37.3235 10.4082 37.42 10.7702 37.4458C11.1322 37.4716 11.4958 37.426 11.84 37.3117C12.1842 37.1974 12.5022 37.0167 12.7756 36.7799L19.9972 30.532L20.494 30.9749V30.9742Z" fill="url(#paint9_linear_27_1066)"/>
<path d="M48.4675 25.6357C48.2544 25.4243 48.1493 25.0843 48.1493 24.6164V5.71786C48.1493 5.25071 48.2544 4.91071 48.4675 4.69714C48.6806 4.48571 49.0212 4.37929 49.4899 4.37929C49.9579 4.37929 50.2978 4.48571 50.5109 4.69714C50.7233 4.91 50.8298 5.25071 50.8298 5.71786V24.6164C50.8298 25.0843 50.7233 25.4236 50.5109 25.6364C50.2978 25.8493 49.9572 25.955 49.4899 25.955C49.0212 25.955 48.6806 25.8486 48.4675 25.6357ZM74.6453 4.69786C74.8793 4.93214 74.9966 5.26143 74.9966 5.68643V24.6171C74.9966 25.0429 74.8793 25.3714 74.6453 25.605C74.4106 25.8393 74.0808 25.955 73.656 25.955C73.4004 25.955 73.1657 25.8914 72.9533 25.7643C72.7402 25.6371 72.527 25.4357 72.3146 25.1586L60.1517 9.51071V24.6171C60.1517 25.0421 60.0343 25.3714 59.801 25.6043C59.5663 25.8393 59.2366 25.955 58.811 25.955C58.3855 25.955 58.055 25.8386 57.8218 25.605C57.587 25.3707 57.4704 25.0421 57.4704 24.6171V5.68571C57.4704 5.26071 57.587 4.93143 57.8218 4.69714C58.0558 4.46357 58.3848 4.34714 58.811 4.34714C59.0666 4.34714 59.2949 4.41071 59.4972 4.53857C59.6995 4.66571 59.9177 4.86786 60.1524 5.14357L72.3154 20.7921V5.68571C72.3154 5.26143 72.432 4.93214 72.666 4.69786C72.9 4.46429 73.2298 4.34786 73.656 4.34786C74.0808 4.34786 74.4106 4.46429 74.6453 4.69786ZM95.9378 24.5214C95.9378 24.9036 95.7571 25.2336 95.3957 25.5093C95.1551 25.7373 94.8341 25.8629 94.5014 25.8593C94.1191 25.8593 93.7886 25.6793 93.5122 25.3171L85.6908 15.6607L84.3178 17.095V24.6164C84.3178 25.0421 84.2004 25.3714 83.9664 25.6043C83.7324 25.8393 83.4026 25.955 82.9771 25.955C82.5509 25.955 82.2211 25.8386 81.9871 25.605C81.7531 25.3707 81.6365 25.0421 81.6365 24.6171V5.68571C81.6365 5.26071 81.7531 4.93143 81.9871 4.69714C82.2218 4.46357 82.5509 4.34714 82.9771 4.34714C83.4026 4.34714 83.7324 4.46429 83.9664 4.69714C84.2011 4.93143 84.3178 5.26071 84.3178 5.68571V13.2714L92.4581 4.85714C92.777 4.53857 93.0967 4.37857 93.4157 4.37857C93.7346 4.37857 94.0428 4.52714 94.3416 4.825C94.6606 5.14357 94.8204 5.46214 94.8204 5.78071C94.8204 6.09929 94.6714 6.40786 94.3733 6.705L87.6053 13.7164L95.5865 23.6286C95.8212 23.9264 95.9378 24.2229 95.9378 24.5207V24.5214ZM101.349 24.2186C100.188 23.0607 99.6091 21.26 99.6091 18.8164V11.455C99.6091 9.01214 100.194 7.21071 101.364 6.05286C102.534 4.895 104.333 4.32643 106.76 4.34786H110.591C113.037 4.34786 114.841 4.92643 116.001 6.08429C117.161 7.24286 117.742 9.04357 117.742 11.4864V18.8164C117.742 21.2593 117.161 23.0607 116.001 24.2186C114.841 25.3771 113.037 25.955 110.591 25.955H106.76C104.312 25.955 102.509 25.3764 101.349 24.2186ZM110.591 23.2786C111.761 23.2786 112.661 23.14 113.288 22.8643C113.9 22.6037 114.387 22.118 114.646 21.5093C114.921 20.8829 115.06 19.9857 115.06 18.8164V11.4864C115.06 10.3386 114.921 9.44643 114.646 8.80929C114.388 8.19075 113.894 7.69801 113.273 7.43786C112.634 7.16286 111.74 7.02429 110.591 7.02429H106.76C105.611 7.00286 104.717 7.13071 104.079 7.40643C103.457 7.66576 102.963 8.15844 102.706 8.77714C102.429 9.415 102.291 10.3071 102.291 11.4543V18.8157C102.291 19.985 102.429 20.8829 102.706 21.5086C102.964 22.1177 103.45 22.6035 104.062 22.8636C104.69 23.14 105.589 23.2779 106.76 23.2779L110.591 23.2786ZM143.695 5.68571V24.6171C143.695 25.0429 143.578 25.3714 143.345 25.605C143.11 25.8393 142.78 25.955 142.355 25.955C141.929 25.955 141.599 25.8393 141.366 25.605C141.131 25.3714 141.014 25.0421 141.014 24.6171V9.86071L135.14 18.4979C134.927 18.7957 134.693 19.0129 134.438 19.1514C134.183 19.2893 133.874 19.3586 133.512 19.3586C133.257 19.3586 133.028 19.2893 132.826 19.1514C132.623 19.0136 132.415 18.7957 132.203 18.4979L126.297 9.82929V24.6171C126.297 25.0421 126.18 25.3714 125.946 25.6043C125.711 25.8393 125.382 25.955 124.957 25.955C124.53 25.955 124.201 25.8386 123.967 25.605C123.732 25.3707 123.616 25.0421 123.616 24.6171V5.68571C123.616 5.26071 123.733 4.93143 123.967 4.69714C124.201 4.46357 124.53 4.34714 124.957 4.34714C125.552 4.34714 126.042 4.63357 126.426 5.20786L133.704 16.1393L140.982 5.20857C141.344 4.63429 141.886 4.34786 142.61 4.34786C143.333 4.34786 143.695 4.79286 143.695 5.68571ZM51.5246 30.0021V30.7436H49.2451V35.2907H48.379V30.0021H51.5254H51.5246ZM57.379 31.6014C57.379 32.1543 57.1982 32.5771 56.8354 32.8714C56.4732 33.1657 55.957 33.3129 55.2881 33.3129H54.7373V35.2914H53.8704V30.0029H55.3961C56.0578 30.0029 56.5538 30.1386 56.8836 30.4079C57.2134 30.6779 57.379 31.0757 57.379 31.6014ZM54.7373 32.585H55.1981C55.6423 32.585 55.9685 32.5086 56.1766 32.3536C56.3839 32.1993 56.4883 31.9579 56.4883 31.6307C56.4883 31.3264 56.3947 31.1 56.209 30.9507C56.0225 30.8007 55.733 30.7264 55.3399 30.7264H54.738L54.7373 32.585ZM63.9504 30.0021L62.28 33.7643C62.0755 34.225 61.8862 34.5579 61.7155 34.7643C61.5442 34.97 61.3447 35.1214 61.1194 35.2186C60.8933 35.315 60.6197 35.3629 60.2986 35.3629C60.0178 35.3629 59.7586 35.3271 59.5195 35.2543V34.4764C59.7557 34.5707 60.0034 34.6179 60.2618 34.6179C60.4814 34.6179 60.6658 34.5643 60.8148 34.4571C60.9631 34.35 61.0978 34.1564 61.218 33.8764L59.2654 30.0021H60.1999L61.4938 32.6536C61.609 32.905 61.681 33.0721 61.7076 33.1564H61.7436C61.758 33.0943 61.794 32.9943 61.8516 32.8564L63.0446 30.0021H63.9504ZM70.2072 35.2914H69.3374V30.7443H66.9996V35.2914H66.1334V30.0029H70.2065L70.2072 35.2914ZM77.1595 35.2914H76.2898V30.7443H73.9519V35.2914H73.0858V30.0029H77.1588L77.1595 35.2914ZM83.3256 35.2907L82.7971 33.8221H80.7718L80.2534 35.2907H79.3397L81.3218 29.9807H82.2643L84.2465 35.2907H83.3256ZM82.5689 33.0764L82.0721 31.6371C82.0361 31.5407 81.9857 31.3886 81.9216 31.1814C81.8739 31.0306 81.8297 30.8786 81.7891 30.7257C81.7243 31.0221 81.6286 31.3471 81.5033 31.6986L81.0245 33.0771L82.5689 33.0764ZM93.9067 35.2914H92.8894L90.707 32.6107V35.2914H89.8409V30.0029H90.707V32.5636L92.8526 30.0029H93.8023L91.6646 32.5571L93.9067 35.2914ZM100.794 32.6393C100.794 33.5 100.578 34.1693 100.148 34.6464C99.7164 35.125 99.1058 35.3629 98.316 35.3629C97.5161 35.3629 96.9019 35.1264 96.4735 34.6521C96.0444 34.1786 95.8306 33.505 95.8306 32.6314C95.8306 31.7586 96.0458 31.0886 96.4771 30.62C96.9077 30.1529 97.5233 29.9186 98.3232 29.9186C99.1109 29.9186 99.7193 30.1557 100.149 30.6314C100.579 31.1064 100.794 31.7764 100.794 32.6393ZM96.75 32.6393C96.75 33.29 96.8818 33.7836 97.1453 34.1207C97.4088 34.4564 97.799 34.625 98.316 34.625C98.8301 34.625 99.2182 34.4586 99.4802 34.1264C99.7423 33.7936 99.8734 33.2979 99.8734 32.6393C99.8734 31.9907 99.7438 31.4986 99.4838 31.1636C99.2246 30.8286 98.8373 30.6607 98.3225 30.6607C97.8034 30.6607 97.4109 30.8286 97.1467 31.1636C96.8825 31.4979 96.75 31.9907 96.75 32.6393ZM105.706 35.2914L104.17 30.8743H104.141C104.182 31.5314 104.202 32.1457 104.202 32.7193V35.2914H103.416V30.0029H104.637L106.108 34.21H106.13L107.644 30.0029H108.869V35.2914H108.036V32.6757C108.036 32.4129 108.042 32.0707 108.056 31.6486C108.069 31.2271 108.081 30.9714 108.091 30.8814H108.062L106.471 35.2914H105.706ZM115.822 35.2914H114.952V30.7443H112.615V35.2914H111.749V30.0029H115.821L115.822 35.2914ZM121.987 35.2907L121.459 33.8221H119.434L118.915 35.2907H118.002L119.984 29.9807H120.926L122.908 35.2907H121.987ZM121.23 33.0764L120.734 31.6371C120.698 31.5407 120.648 31.3886 120.583 31.1814C120.536 31.0306 120.492 30.8786 120.451 30.7257C120.386 31.0221 120.29 31.3471 120.165 31.6986L119.686 33.0771L121.23 33.0764ZM129.27 35.2914H128.4V32.9079H125.958V35.2914H125.091V30.0029H125.958V32.1664H128.4V30.0021H129.27V35.2914ZM132.149 30.0021H132.942V32.7521C132.942 33.0379 132.935 33.3286 132.921 33.6214C132.906 33.9143 132.895 34.1129 132.888 34.2164H132.921L135.628 30.0021H136.639V35.2907H135.842V32.5629C135.842 32.1457 135.865 31.6393 135.91 31.0443H135.881L133.164 35.2907H132.149V30.0021ZM139.51 30.0014H140.304V32.7514C140.304 33.0371 140.296 33.3279 140.282 33.6207C140.268 33.9136 140.257 34.1121 140.25 34.2157H140.282L142.989 30.0014H144V35.29H143.203V32.5621C143.203 32.145 143.226 31.6386 143.272 31.0436H143.243L140.525 35.29H139.51V30.0014ZM141.782 29.5786C141.27 29.5786 140.895 29.4864 140.657 29.3021C140.419 29.1171 140.287 28.8093 140.26 28.3771H141.032C141.047 28.5507 141.08 28.6864 141.132 28.7829C141.18 28.8756 141.259 28.9488 141.356 28.99C141.454 29.0329 141.603 29.0543 141.803 29.0543C142.04 29.0543 142.22 29.0014 142.343 28.8971C142.467 28.7914 142.542 28.6186 142.569 28.3771H143.355C143.319 28.7914 143.172 29.0964 142.916 29.2893C142.66 29.4821 142.283 29.5786 141.782 29.5786Z" fill="white"/>
</g>
<defs>
<linearGradient id="paint0_linear_27_1066" x1="19.4775" y1="3.46585" x2="11.4518" y2="10.4327" gradientUnits="userSpaceOnUse">
<stop offset="0.075" stop-color="#F3EB09"/>
<stop offset="1" stop-color="#FAAF40"/>
</linearGradient>
<linearGradient id="paint1_linear_27_1066" x1="31.0932" y1="3.2441" x2="21.7346" y2="11.3686" gradientUnits="userSpaceOnUse">
<stop stop-color="#FFFC06"/>
<stop offset="0.138" stop-color="#FDEA0A"/>
<stop offset="0.529" stop-color="#F9BA15"/>
<stop offset="0.829" stop-color="#F79D1C"/>
<stop offset="1" stop-color="#F6921E"/>
</linearGradient>
<linearGradient id="paint2_linear_27_1066" x1="28.5854" y1="1.88287" x2="24.0308" y2="11.5881" gradientUnits="userSpaceOnUse">
<stop stop-color="white" stop-opacity="0"/>
<stop offset="0.096" stop-color="#F8F8F8" stop-opacity="0.096"/>
<stop offset="0.236" stop-color="#E5E5E5" stop-opacity="0.236"/>
<stop offset="0.402" stop-color="#C6C5C5" stop-opacity="0.402"/>
<stop offset="0.589" stop-color="#9B9999" stop-opacity="0.589"/>
<stop offset="0.793" stop-color="#636061" stop-opacity="0.793"/>
<stop offset="1" stop-color="#231F20"/>
</linearGradient>
<linearGradient id="paint3_linear_27_1066" x1="36.5969" y1="19.4029" x2="29.6447" y2="11.3673" gradientUnits="userSpaceOnUse">
<stop stop-color="#C3E18C"/>
<stop offset="0.273" stop-color="#BCD360"/>
<stop offset="0.603" stop-color="#B4C530"/>
<stop offset="0.856" stop-color="#B0BB13"/>
<stop offset="1" stop-color="#AEB808"/>
</linearGradient>
<linearGradient id="paint4_linear_27_1066" x1="38.1852" y1="28.4907" x2="28.4751" y2="23.9192" gradientUnits="userSpaceOnUse">
<stop stop-color="white" stop-opacity="0"/>
<stop offset="0.096" stop-color="#F8F8F8" stop-opacity="0.096"/>
<stop offset="0.236" stop-color="#E5E5E5" stop-opacity="0.236"/>
<stop offset="0.402" stop-color="#C6C5C5" stop-opacity="0.402"/>
<stop offset="0.589" stop-color="#9B9999" stop-opacity="0.589"/>
<stop offset="0.793" stop-color="#636061" stop-opacity="0.793"/>
<stop offset="1" stop-color="#231F20"/>
</linearGradient>
<linearGradient id="paint5_linear_27_1066" x1="36.8186" y1="30.9994" x2="28.712" y2="21.629" gradientUnits="userSpaceOnUse">
<stop stop-color="#AEC908"/>
<stop offset="0.196" stop-color="#92BA16"/>
<stop offset="0.561" stop-color="#62A12E"/>
<stop offset="0.841" stop-color="#45913D"/>
<stop offset="1" stop-color="#3A8B42"/>
</linearGradient>
<linearGradient id="paint6_linear_27_1066" x1="3.47257" y1="20.9714" x2="10.4248" y2="29.007" gradientUnits="userSpaceOnUse">
<stop stop-color="#94E8FF"/>
<stop offset="0.131" stop-color="#83E0FF"/>
<stop offset="0.526" stop-color="#53CBFF"/>
<stop offset="0.828" stop-color="#36BEFF"/>
<stop offset="1" stop-color="#2BB9FF"/>
</linearGradient>
<linearGradient id="paint7_linear_27_1066" x1="3.2508" y1="9.37637" x2="11.3582" y2="18.7468" gradientUnits="userSpaceOnUse">
<stop stop-color="#94E8FF"/>
<stop offset="0.346" stop-color="#56A8D7"/>
<stop offset="0.644" stop-color="#2878B9"/>
<stop offset="0.871" stop-color="#0C5BA6"/>
<stop offset="1" stop-color="#01509F"/>
</linearGradient>
<linearGradient id="paint8_linear_27_1066" x1="20.7165" y1="36.5355" x2="28.7422" y2="29.568" gradientUnits="userSpaceOnUse">
<stop stop-color="#7560AA"/>
<stop offset="0.441" stop-color="#9188D7"/>
<stop offset="0.797" stop-color="#A3A3F4"/>
<stop offset="1" stop-color="#AAADFF"/>
</linearGradient>
<linearGradient id="paint9_linear_27_1066" x1="9.10003" y1="36.7563" x2="18.4594" y2="28.6318" gradientUnits="userSpaceOnUse">
<stop stop-color="#AAADFF"/>
<stop offset="0.222" stop-color="#8993E3"/>
<stop offset="0.575" stop-color="#596EBC"/>
<stop offset="0.846" stop-color="#3C58A4"/>
<stop offset="1" stop-color="#314F9B"/>
</linearGradient>
<clipPath id="clip0_27_1066">
<rect width="144" height="40" fill="white"/>
</clipPath>
</defs>
</svg>
