<svg width="48" height="48" viewBox="0 0 48 48" fill="none" xmlns="http://www.w3.org/2000/svg">
<path d="M7.91727 5.78302L20.3206 16.7679C21.276 17.6166 22.4882 18.1253 23.7665 18.214C24.5315 18.2703 25.3002 18.1752 26.0279 17.934C26.7557 17.6928 27.428 17.3104 28.0059 16.809L31.5966 13.6966C30.9766 13.7762 30.3501 13.7934 29.7266 13.748C27.3849 13.5839 25.1937 12.5407 23.5974 10.8301L12.3042 0.830191C11.9795 0.542735 11.6008 0.321933 11.1899 0.180496C10.779 0.0390587 10.3441 -0.0202203 9.91004 0.00607082C9.47601 0.032362 9.0515 0.143704 8.66094 0.333688C8.27039 0.523672 7.9215 0.788546 7.63436 1.11306C7.05191 1.77106 6.75481 2.63119 6.8078 3.50596C6.8608 4.38073 7.2596 5.19923 7.91727 5.78302Z" fill="url(#paint0_linear_27_1181)"/>
<path d="M23.5974 10.8289C25.1939 12.5394 27.3849 13.5828 29.7266 13.7476C30.3501 13.7934 30.9766 13.7761 31.5966 13.6962L37.1755 8.86081C37.8399 8.28452 38.2478 7.47048 38.3103 6.59636C38.3729 5.72224 38.0849 4.85902 37.5094 4.19513C37.226 3.86724 36.8801 3.59834 36.4916 3.40394C36.1032 3.20955 35.6799 3.09351 35.2461 3.06251C34.8123 3.03151 34.3766 3.08617 33.9641 3.22333C33.5517 3.3605 33.1707 3.57745 32.843 3.86168L24.1943 11.3595L23.5974 10.8289Z" fill="url(#paint1_linear_27_1181)"/>
<path opacity="0.2" d="M23.5983 10.8188C25.1941 12.534 27.3865 13.582 29.7309 13.7504C30.3684 13.7976 30.9937 13.7796 31.6035 13.7016L37.1686 8.87046C37.8345 8.2942 38.2441 7.47961 38.3079 6.60441C38.3717 5.72921 38.0847 4.86444 37.5093 4.19878C37.2261 3.87017 36.8802 3.60052 36.4915 3.40537C36.1029 3.21022 35.6793 3.09342 35.245 3.06171C34.8108 3.02999 34.3745 3.08399 33.9614 3.22059C33.5483 3.3572 33.1664 3.5737 32.8378 3.85762L24.1943 11.3503L23.5983 10.8188Z" fill="url(#paint2_linear_27_1181)"/>
<path d="M42.2163 7.86679L31.2327 20.2712C30.3823 21.2304 29.8739 22.4416 29.7862 23.7171C29.6717 25.2591 30.1769 26.7834 31.1913 27.9558L34.3034 31.5475C34.2237 30.9273 34.2064 30.3007 34.2516 29.6771C34.4132 27.3417 35.4556 25.153 37.1705 23.5482L47.1699 12.253C47.751 11.5943 48.0471 10.7344 47.9939 9.86007C47.9408 8.98571 47.5427 8.16747 46.8861 7.58306C46.5618 7.29486 46.1832 7.07341 45.7723 6.93152C45.3613 6.78963 44.9261 6.73012 44.4919 6.75643C44.0576 6.78273 43.6329 6.89433 43.2423 7.08477C42.8517 7.27522 42.503 7.54072 42.2163 7.86593V7.86679Z" fill="url(#paint3_linear_27_1181)"/>
<path opacity="0.2" d="M37.1815 23.5489C35.4622 25.1533 34.4153 27.3432 34.2497 29.6812C34.2035 30.3059 34.2199 30.9336 34.2989 31.555L39.1291 37.1199C39.412 37.4492 39.7578 37.7195 40.1465 37.9151C40.5353 38.1108 40.9591 38.2278 41.3937 38.2596C41.8282 38.2913 42.2648 38.237 42.6781 38.1C43.0914 37.9629 43.4732 37.7458 43.8015 37.461C44.466 36.8839 44.8745 36.0695 44.9383 35.1948C45.0021 34.3201 44.716 33.4557 44.1422 32.7894L36.6493 24.1429L37.1815 23.5489Z" fill="url(#paint4_linear_27_1181)"/>
<path d="M37.1704 23.5465C35.4557 25.1518 34.4134 27.3407 34.2516 29.6763C34.2058 30.3002 34.2232 30.9271 34.3033 31.5475L39.1387 37.127C39.4217 37.4553 39.7675 37.7245 40.1559 37.9192C40.5443 38.1138 40.9677 38.2299 41.4016 38.2609C41.8355 38.2918 42.2713 38.2369 42.6837 38.0994C43.0961 37.9618 43.4769 37.7444 43.8042 37.4596C44.4668 36.8822 44.8734 36.0683 44.9357 35.1947C44.9981 34.3212 44.7111 33.4584 44.1371 32.7939L36.6399 24.1423L37.1704 23.5474V23.5465Z" fill="url(#paint5_linear_27_1181)"/>
<path d="M5.78335 40.5812L16.767 28.1768C17.6174 27.2176 18.1258 26.0064 18.2134 24.7309C18.328 23.1889 17.8228 21.6646 16.8084 20.4921L13.6963 16.9005C13.7748 17.5091 13.7938 18.1349 13.7481 18.7709C13.5865 21.1063 12.5441 23.2951 10.8292 24.8998L0.829773 36.1958C0.248937 36.8546 -0.0470354 37.7144 0.00609259 38.5887C0.0592206 39.463 0.457161 40.2812 1.11355 40.8658C1.43797 41.1538 1.81661 41.3751 2.22759 41.5169C2.63858 41.6586 3.07376 41.718 3.50799 41.6916C3.94221 41.6653 4.36687 41.5536 4.75742 41.3632C5.14796 41.1727 5.49666 40.9072 5.78335 40.582V40.5812Z" fill="url(#paint6_linear_27_1181)"/>
<path d="M10.8292 24.9024C12.5437 23.2973 13.586 21.1087 13.748 18.7735C13.7937 18.1357 13.7756 17.5117 13.6962 16.9022L8.86084 11.3228C8.57788 10.9944 8.2322 10.7251 7.84381 10.5304C7.45541 10.3357 7.03201 10.2195 6.59812 10.1884C6.16422 10.1574 5.72845 10.2123 5.31601 10.3497C4.90358 10.4872 4.52268 10.7046 4.19535 10.9893C3.53276 11.5667 3.12615 12.3806 3.06381 13.2542C3.00147 14.1277 3.28845 14.9905 3.86241 15.655L11.3596 24.3066L10.8292 24.9024Z" fill="url(#paint7_linear_27_1181)"/>
<path d="M40.2315 42.2174L27.8281 31.2326C26.8731 30.384 25.6611 29.8753 24.3831 29.7865C23.6181 29.7301 22.8494 29.8253 22.1217 30.0665C21.3939 30.3076 20.7216 30.69 20.1437 31.1914L16.5521 34.3039C17.1727 34.2238 17.7998 34.2066 18.4238 34.2524C20.7654 34.417 22.9563 35.4605 24.5522 37.1712L35.8463 47.1703C36.171 47.4576 36.5496 47.6783 36.9604 47.8196C37.3712 47.961 37.8061 48.0202 38.24 47.9939C38.6739 47.9677 39.0983 47.8564 39.4888 47.6664C39.8793 47.4765 40.2281 47.2118 40.5153 46.8874C41.0977 46.2291 41.3946 45.3688 41.3415 44.4939C41.2883 43.619 40.8893 42.8013 40.2315 42.2174Z" fill="url(#paint8_linear_27_1181)"/>
<path d="M24.5514 37.1704C22.9549 35.4599 20.7638 34.4165 18.4221 34.2516C17.7984 34.2061 17.1715 34.2237 16.5513 34.3039L10.9724 39.1385C10.3079 39.7149 9.89997 40.5292 9.83759 41.4035C9.77521 42.2778 10.0635 43.1412 10.6394 43.805C10.9228 44.1327 11.2687 44.4014 11.6571 44.5957C12.0455 44.7899 12.4688 44.9058 12.9025 44.9367C13.3362 44.9677 13.7718 44.913 14.1841 44.7758C14.5964 44.6386 14.9773 44.4217 15.3049 44.1376L23.9562 36.6398L24.5514 37.1712V37.1704Z" fill="url(#paint9_linear_27_1181)"/>
<defs>
<linearGradient id="paint0_linear_27_1181" x1="23.3335" y1="4.15865" x2="13.7046" y2="12.5027" gradientUnits="userSpaceOnUse">
<stop offset="0.075" stop-color="#F3EB09"/>
<stop offset="1" stop-color="#FAAF40"/>
</linearGradient>
<linearGradient id="paint1_linear_27_1181" x1="37.2489" y1="3.89254" x2="26.0207" y2="13.623" gradientUnits="userSpaceOnUse">
<stop stop-color="#FFFC06"/>
<stop offset="0.138" stop-color="#FDEA0A"/>
<stop offset="0.529" stop-color="#F9BA15"/>
<stop offset="0.829" stop-color="#F79D1C"/>
<stop offset="1" stop-color="#F6921E"/>
</linearGradient>
<linearGradient id="paint2_linear_27_1181" x1="34.2446" y1="2.25896" x2="28.7726" y2="13.8985" gradientUnits="userSpaceOnUse">
<stop stop-color="white" stop-opacity="0"/>
<stop offset="0.096" stop-color="#F8F8F8" stop-opacity="0.096"/>
<stop offset="0.236" stop-color="#E5E5E5" stop-opacity="0.236"/>
<stop offset="0.402" stop-color="#C6C5C5" stop-opacity="0.402"/>
<stop offset="0.589" stop-color="#9B9999" stop-opacity="0.589"/>
<stop offset="0.793" stop-color="#636061" stop-opacity="0.793"/>
<stop offset="1" stop-color="#231F20"/>
</linearGradient>
<linearGradient id="paint3_linear_27_1181" x1="43.8422" y1="23.2842" x2="35.497" y2="13.6553" gradientUnits="userSpaceOnUse">
<stop stop-color="#C3E18C"/>
<stop offset="0.273" stop-color="#BCD360"/>
<stop offset="0.603" stop-color="#B4C530"/>
<stop offset="0.856" stop-color="#B0BB13"/>
<stop offset="1" stop-color="#AEB808"/>
</linearGradient>
<linearGradient id="paint4_linear_27_1181" x1="45.7448" y1="34.19" x2="34.1051" y2="28.7196" gradientUnits="userSpaceOnUse">
<stop stop-color="white" stop-opacity="0"/>
<stop offset="0.096" stop-color="#F8F8F8" stop-opacity="0.096"/>
<stop offset="0.236" stop-color="#E5E5E5" stop-opacity="0.236"/>
<stop offset="0.402" stop-color="#C6C5C5" stop-opacity="0.402"/>
<stop offset="0.589" stop-color="#9B9999" stop-opacity="0.589"/>
<stop offset="0.793" stop-color="#636061" stop-opacity="0.793"/>
<stop offset="1" stop-color="#231F20"/>
</linearGradient>
<linearGradient id="paint5_linear_27_1181" x1="44.1078" y1="37.2007" x2="34.3769" y2="25.9724" gradientUnits="userSpaceOnUse">
<stop stop-color="#AEC908"/>
<stop offset="0.196" stop-color="#92BA16"/>
<stop offset="0.561" stop-color="#62A12E"/>
<stop offset="0.841" stop-color="#45913D"/>
<stop offset="1" stop-color="#3A8B42"/>
</linearGradient>
<linearGradient id="paint6_linear_27_1181" x1="4.16005" y1="25.1664" x2="12.5053" y2="34.7952" gradientUnits="userSpaceOnUse">
<stop stop-color="#94E8FF"/>
<stop offset="0.131" stop-color="#83E0FF"/>
<stop offset="0.526" stop-color="#53CBFF"/>
<stop offset="0.828" stop-color="#36BEFF"/>
<stop offset="1" stop-color="#2BB9FF"/>
</linearGradient>
<linearGradient id="paint7_linear_27_1181" x1="3.89432" y1="11.2516" x2="13.6261" y2="22.48" gradientUnits="userSpaceOnUse">
<stop stop-color="#94E8FF"/>
<stop offset="0.346" stop-color="#56A8D7"/>
<stop offset="0.644" stop-color="#2878B9"/>
<stop offset="0.871" stop-color="#0C5BA6"/>
<stop offset="1" stop-color="#01509F"/>
</linearGradient>
<linearGradient id="paint8_linear_27_1181" x1="24.8179" y1="43.8444" x2="34.4468" y2="35.4995" gradientUnits="userSpaceOnUse">
<stop stop-color="#7560AA"/>
<stop offset="0.441" stop-color="#9188D7"/>
<stop offset="0.797" stop-color="#A3A3F4"/>
<stop offset="1" stop-color="#AAADFF"/>
</linearGradient>
<linearGradient id="paint9_linear_27_1181" x1="10.9016" y1="44.1093" x2="22.1307" y2="34.3788" gradientUnits="userSpaceOnUse">
<stop stop-color="#AAADFF"/>
<stop offset="0.222" stop-color="#8993E3"/>
<stop offset="0.575" stop-color="#596EBC"/>
<stop offset="0.846" stop-color="#3C58A4"/>
<stop offset="1" stop-color="#314F9B"/>
</linearGradient>
</defs>
</svg>
