<svg width="187" height="26" viewBox="0 0 187 26" fill="none" xmlns="http://www.w3.org/2000/svg">
<g clip-path="url(#clip0_27_1078)">
<path d="M8.2691 18.3376C8.02381 18.5096 7.73563 18.601 7.44097 18.6003C7.14635 18.5997 6.85851 18.507 6.61394 18.3339C6.36936 18.1608 6.17904 17.9153 6.06705 17.6283C5.95507 17.3412 5.92647 17.0256 5.98485 16.7215C6.04326 16.4173 6.18601 16.1382 6.39509 15.9195C6.60417 15.7009 6.87015 15.5525 7.15934 15.4931C7.44855 15.4338 7.74794 15.4661 8.01968 15.586C8.29141 15.706 8.52323 15.9082 8.68586 16.1671C8.90331 16.5132 8.98154 16.9361 8.90339 17.343C8.82533 17.7499 8.59725 18.1076 8.2691 18.3376Z" fill="white"/>
<path d="M20.1344 10.0486C19.8717 10.2206 19.5631 10.3122 19.2474 10.3119C18.9318 10.3115 18.6234 10.2193 18.3611 10.0467C18.0988 9.87411 17.8945 9.62901 17.7741 9.34232C17.6535 9.05571 17.6223 8.74042 17.6842 8.43626C17.7461 8.13213 17.8984 7.85291 18.1218 7.63382C18.3453 7.41477 18.6297 7.26569 18.9394 7.20553C19.249 7.14531 19.5699 7.17672 19.8613 7.2957C20.1529 7.41468 20.4019 7.6159 20.577 7.87394C20.8108 8.22032 20.8953 8.6435 20.8125 9.05103C20.7295 9.45854 20.4857 9.81717 20.1344 10.0486Z" fill="white"/>
<path d="M7.69516 13.2711C7.65883 12.3674 7.81497 11.4667 8.15175 10.6371C8.48859 9.80755 8.99724 9.07079 9.63931 8.48254C10.2814 7.89427 11.04 7.47002 11.8578 7.24173C12.6757 7.01347 13.5313 6.98721 14.36 7.16496C14.8171 7.26163 15.2611 7.41955 15.6815 7.63498H15.7045C16.0028 7.78913 16.3402 7.83375 16.6645 7.762C16.9888 7.69023 17.282 7.50609 17.4987 7.23805C17.7154 6.96997 17.8435 6.63296 17.8632 6.27917C17.8829 5.92534 17.7931 5.57447 17.6077 5.28075C17.4617 5.052 17.2644 4.86626 17.0337 4.74063L16.9913 4.71177L16.9335 4.68704C16.3087 4.37149 15.6502 4.13888 14.9726 3.99439C12.7366 3.51586 10.4147 4.00645 8.51644 5.35846C6.61823 6.71048 5.29889 8.81339 4.84814 11.2055C4.71269 11.9313 4.65836 12.6718 4.68634 13.4113C4.68652 13.7267 4.77363 14.0351 4.93674 14.2977C5.12171 14.5941 5.39301 14.8166 5.70841 14.9308C6.02386 15.0451 6.36569 15.0446 6.68079 14.9293C6.99585 14.814 7.26652 14.5906 7.45068 14.2938C7.63483 13.9968 7.72213 13.6432 7.69901 13.2876C7.70128 13.2782 7.70128 13.2682 7.69901 13.2587" fill="white"/>
<path d="M18.9093 12.7161C18.9297 13.1862 18.8951 13.6572 18.8063 14.1184C18.5164 15.6307 17.6717 16.9602 16.457 17.8165C15.2423 18.6728 13.7561 18.9861 12.3234 18.6881C11.8724 18.5904 11.4344 18.4348 11.0191 18.2247H10.9963C10.6463 18.071 10.2542 18.0638 9.89937 18.2047C9.54467 18.3456 9.25396 18.6239 9.08644 18.983C8.91891 19.3423 8.88717 19.7553 8.99748 20.1384C9.10779 20.5215 9.3521 20.8458 9.68063 21.0454L9.71872 21.0737L9.77593 21.1019C10.9436 21.6839 12.2213 21.9773 13.5122 21.9598C14.8032 21.9422 16.0734 21.6141 17.2264 21.0004C18.3795 20.3867 19.3852 19.5036 20.167 18.418C20.9488 17.3324 21.4864 16.0729 21.739 14.735C21.8746 14.0258 21.9284 13.3019 21.8991 12.5791C21.8991 12.5791 21.8991 12.5791 21.8991 12.559C21.8993 12.2519 21.813 11.9517 21.6512 11.6966C21.47 11.404 21.2019 11.1836 20.8891 11.0698C20.5763 10.9559 20.2365 10.9553 19.9233 11.0679C19.6101 11.1805 19.3412 11.4 19.159 11.6919C18.9768 11.9837 18.8917 12.3313 18.917 12.6799C18.9147 12.689 18.9147 12.6987 18.917 12.708" fill="white"/>
<path d="M7.43255 25.4959L7.26323 25.444C5.07209 24.5834 3.1948 23.0343 1.89361 21.013C0.592408 18.9918 -0.0677015 16.5993 0.00549058 14.1698V14.102C0.0101002 14.032 0.0203995 13.9626 0.036277 13.8944C0.0726 13.714 0.142984 13.5427 0.243373 13.3906C0.343762 13.2385 0.472167 13.1085 0.621201 13.0081C0.929261 12.803 1.30205 12.73 1.661 12.8045C2.01994 12.8789 2.33699 13.0951 2.5453 13.4073C2.65955 13.5836 2.73449 13.7842 2.76466 13.9942V14.2058C2.7018 16.0403 3.19226 17.8493 4.16765 19.3807C5.14306 20.9122 6.5548 22.0898 8.20603 22.7492L8.37151 22.8251C8.58973 22.9329 8.77588 23.0998 8.91029 23.3081C9.01211 23.4652 9.08297 23.6416 9.11874 23.8272C9.15451 24.0127 9.15451 24.2038 9.11882 24.3894C9.08297 24.575 9.0122 24.7514 8.91029 24.9084C8.80847 25.0655 8.67766 25.2 8.52543 25.3043C8.37501 25.409 8.20603 25.4816 8.02832 25.518C7.85061 25.5543 7.66771 25.5536 7.49027 25.5159C7.49027 25.5159 7.45179 25.5159 7.43255 25.5159" fill="white"/>
<path d="M25.3663 13.4068C25.1877 13.3697 25.0177 13.2959 24.8664 13.1895C24.7151 13.083 24.5855 12.9462 24.4851 12.7868C24.3722 12.6073 24.2983 12.404 24.2687 12.1911V11.952C24.3324 10.0901 23.84 8.25359 22.8602 6.69903C21.8804 5.14448 20.4622 3.9494 18.8034 3.28057L18.641 3.20763C18.4216 3.09676 18.2347 2.926 18.0999 2.71327C17.9473 2.47427 17.8658 2.19308 17.8658 1.90543C17.866 1.61778 17.9477 1.33665 18.1005 1.09778C18.2534 0.858909 18.4706 0.673075 18.7244 0.563895C18.9782 0.454715 19.2573 0.427118 19.5262 0.484611H19.5842C19.6412 0.495571 19.697 0.513243 19.7503 0.537289C21.9465 1.41744 23.8259 2.99423 25.1264 5.04772C26.4269 7.10124 27.0837 9.52909 27.0052 11.9926V12.0736C27.0041 12.1434 26.995 12.2128 26.9781 12.2803C26.9441 12.4677 26.8745 12.646 26.7737 12.8047C26.6727 12.9633 26.5425 13.0991 26.3906 13.2042C26.2387 13.3104 26.0684 13.384 25.8893 13.4209C25.7102 13.4578 25.5259 13.4571 25.347 13.4189" fill="white"/>
<path d="M43.3191 22.8472C41.9397 22.8472 40.6939 22.6034 39.5818 22.1159C38.4782 21.6198 37.5687 20.9147 36.8531 20.0008C36.1461 19.0782 35.6978 17.9814 35.5082 16.7106L39.1808 16.1623C39.4395 17.2416 39.974 18.0729 40.7844 18.656C41.5949 19.2392 42.5173 19.5308 43.5519 19.5308C44.1296 19.5308 44.69 19.4394 45.233 19.2566C45.7762 19.0739 46.2202 18.804 46.5651 18.4471C46.9185 18.0903 47.0953 17.6507 47.0953 17.1285C47.0953 16.9369 47.0651 16.7541 47.0048 16.58C46.953 16.3972 46.8625 16.2276 46.7332 16.0709C46.6039 15.9142 46.4185 15.7662 46.1771 15.627C45.9443 15.4877 45.6469 15.3615 45.2848 15.2483L40.4482 13.8121C40.0861 13.7076 39.6637 13.5597 39.1808 13.3682C38.7067 13.1767 38.2454 12.9025 37.7971 12.5456C37.3488 12.1887 36.9738 11.7187 36.672 11.1355C36.3789 10.5437 36.2323 9.7994 36.2323 8.90292C36.2323 7.64077 36.5471 6.59192 37.1764 5.7563C37.8057 4.9207 38.6463 4.29834 39.6982 3.88924C40.7499 3.48014 41.9139 3.27994 43.1898 3.28865C44.4744 3.30605 45.621 3.52802 46.6298 3.95453C47.6385 4.38103 48.4833 5.00339 49.1644 5.82159C49.8455 6.63108 50.3369 7.62337 50.6387 8.79848L46.8367 9.45126C46.6988 8.84199 46.4444 8.32841 46.0737 7.91061C45.7029 7.49281 45.2589 7.17511 44.7417 6.95749C44.233 6.73989 43.6984 6.62238 43.138 6.60497C42.5863 6.58757 42.0647 6.6659 41.5733 6.83998C41.0905 7.00537 40.6939 7.24908 40.3836 7.57115C40.0818 7.8932 39.9309 8.27619 39.9309 8.72014C39.9309 9.1292 40.056 9.46434 40.3059 9.72547C40.556 9.97784 40.8706 10.1825 41.25 10.3391C41.6293 10.4958 42.0173 10.6264 42.4139 10.7308L45.6469 11.6186C46.1297 11.7492 46.6642 11.9233 47.2505 12.1409C47.8367 12.3498 48.3971 12.6457 48.9317 13.0287C49.4748 13.403 49.9188 13.8992 50.2637 14.5172C50.6172 15.1351 50.7939 15.9185 50.7939 16.8673C50.7939 17.877 50.5827 18.7605 50.1602 19.5178C49.7463 20.2663 49.186 20.8887 48.479 21.3848C47.7721 21.8722 46.9703 22.2378 46.0737 22.4815C45.1857 22.7253 44.2675 22.8472 43.3191 22.8472Z" fill="white"/>
<path d="M52.6018 22.4554V3.65423H64.7579V6.97055H56.1193V10.9919H63.2061V14.3082H56.1193V19.1391H64.7579V22.4554H52.6018Z" fill="white"/>
<path d="M74.1583 22.8472C72.2961 22.8472 70.6882 22.438 69.3347 21.6198C67.9897 20.8016 66.9508 19.657 66.218 18.186C65.4938 16.715 65.1317 15.0046 65.1317 13.0549C65.1317 11.105 65.4938 9.39467 66.218 7.92368C66.9508 6.45265 67.9897 5.30804 69.3347 4.48984C70.6882 3.67164 72.2961 3.26254 74.1583 3.26254C76.2964 3.26254 78.0897 3.79786 79.5381 4.86848C80.9951 5.9391 82.0211 7.38836 82.616 9.21622L79.0725 10.2086C78.7276 9.06828 78.1457 8.1848 77.3267 7.55809C76.5077 6.92268 75.4515 6.60497 74.1583 6.60497C72.9772 6.60497 71.9901 6.87046 71.1969 7.40141C70.4123 7.93238 69.8217 8.68097 69.4252 9.64713C69.0286 10.6133 68.8303 11.7492 68.8303 13.0549C68.8303 14.3605 69.0286 15.4963 69.4252 16.4625C69.8217 17.4288 70.4123 18.1773 71.1969 18.7082C71.9901 19.2392 72.9772 19.5047 74.1583 19.5047C75.4515 19.5047 76.5077 19.187 77.3267 18.5516C78.1457 17.9162 78.7276 17.0327 79.0725 15.9011L82.616 16.8934C82.0211 18.7213 80.9951 20.1705 79.5381 21.2412C78.0897 22.3118 76.2964 22.8472 74.1583 22.8472Z" fill="white"/>
<path d="M92.4209 22.8472C90.5586 22.8472 88.9511 22.438 87.5975 21.6198C86.2525 20.8016 85.2134 19.657 84.4806 18.186C83.7564 16.715 83.3943 15.0046 83.3943 13.0549C83.3943 11.105 83.7564 9.39467 84.4806 7.92368C85.2134 6.45265 86.2525 5.30804 87.5975 4.48984C88.9511 3.67164 90.5586 3.26254 92.4209 3.26254C94.2832 3.26254 95.8864 3.67164 97.2314 4.48984C98.585 5.30804 99.6238 6.45265 100.349 7.92368C101.081 9.39467 101.448 11.105 101.448 13.0549C101.448 15.0046 101.081 16.715 100.349 18.186C99.6238 19.657 98.585 20.8016 97.2314 21.6198C95.8864 22.438 94.2832 22.8472 92.4209 22.8472ZM92.4209 19.5047C93.6021 19.5221 94.5851 19.2653 95.3691 18.7344C96.154 18.2034 96.7399 17.4505 97.1285 16.4756C97.5248 15.5008 97.7229 14.3605 97.7229 13.0549C97.7229 11.7492 97.5248 10.6176 97.1285 9.66013C96.7399 8.70272 96.154 7.95849 95.3691 7.42753C94.5851 6.89657 93.6021 6.62238 92.4209 6.60497C91.2397 6.58757 90.2567 6.84435 89.4726 7.3753C88.6878 7.90626 88.0976 8.65918 87.7004 9.63404C87.3127 10.609 87.1188 11.7492 87.1188 13.0549C87.1188 14.3605 87.3127 15.492 87.7004 16.4495C88.0976 17.407 88.6878 18.1512 89.4726 18.6821C90.2567 19.2131 91.2397 19.4873 92.4209 19.5047Z" fill="white"/>
<path d="M102.994 22.4554V3.65423H106.563L114.659 16.1884V3.65423H118.229V22.4554H114.659L106.563 9.92134V22.4554H102.994Z" fill="white"/>
<path d="M122.282 8.35453V3.65423H125.799L124.677 8.35453H122.282Z" fill="white"/>
<path d="M128.751 22.4293V19.348L136.562 12.3498C137.149 11.8276 137.563 11.3357 137.804 10.8744C138.045 10.4131 138.166 9.98227 138.166 9.58187C138.166 9.00736 138.05 8.49815 137.816 8.05424C137.584 7.60161 137.256 7.24909 136.834 6.99667C136.411 6.73554 135.916 6.60497 135.347 6.60497C134.752 6.60497 134.226 6.74425 133.769 7.02278C133.321 7.29261 132.972 7.65384 132.722 8.10646C132.471 8.55038 132.355 9.03344 132.372 9.5557H128.751C128.751 8.26749 129.032 7.15335 129.592 6.21328C130.152 5.27323 130.933 4.54642 131.933 4.03287C132.933 3.51932 134.097 3.26254 135.424 3.26254C136.64 3.26254 137.726 3.53237 138.684 4.07204C139.649 4.603 140.408 5.34721 140.959 6.30468C141.511 7.26215 141.787 8.37194 141.787 9.63404C141.787 10.5654 141.658 11.3401 141.399 11.9581C141.14 12.5674 140.757 13.1332 140.248 13.6555C139.74 14.169 139.114 14.7521 138.373 15.405L133.329 19.8702L133.045 19.0869H141.787V22.4293H128.751Z" fill="white"/>
<path d="M150.749 22.8472C149.37 22.8472 148.163 22.5555 147.129 21.9723C146.093 21.3892 145.288 20.5753 144.71 19.5308C144.132 18.4863 143.843 17.2677 143.843 15.875V10.2346C143.843 8.842 144.132 7.62338 144.71 6.57886C145.288 5.53435 146.093 4.7205 147.129 4.13732C148.163 3.55413 149.37 3.26254 150.749 3.26254C152.129 3.26254 153.336 3.55413 154.37 4.13732C155.405 4.7205 156.211 5.53435 156.788 6.57886C157.366 7.62338 157.655 8.842 157.655 10.2346V15.875C157.655 17.2677 157.366 18.4863 156.788 19.5308C156.211 20.5753 155.405 21.3892 154.37 21.9723C153.336 22.5555 152.129 22.8472 150.749 22.8472ZM150.749 19.4786C151.37 19.4786 151.931 19.3306 152.431 19.0347C152.931 18.7387 153.327 18.3383 153.62 17.8335C153.913 17.3287 154.06 16.7628 154.06 16.1361V9.94743C154.06 9.32074 153.913 8.75489 153.62 8.25008C153.327 7.74524 152.931 7.34484 152.431 7.0489C151.931 6.75295 151.37 6.60497 150.749 6.60497C150.128 6.60497 149.568 6.75295 149.068 7.0489C148.568 7.34484 148.172 7.74524 147.878 8.25008C147.585 8.75489 147.438 9.32074 147.438 9.94743V16.1361C147.438 16.7628 147.585 17.3287 147.878 17.8335C148.172 18.3383 148.568 18.7387 149.068 19.0347C149.568 19.3306 150.128 19.4786 150.749 19.4786Z" fill="white"/>
<path d="M159.719 22.4293V19.348L167.531 12.3498C168.117 11.8276 168.531 11.3357 168.772 10.8744C169.014 10.4131 169.135 9.98227 169.135 9.58187C169.135 9.00736 169.018 8.49815 168.786 8.05424C168.552 7.60161 168.225 7.24909 167.803 6.99667C167.38 6.73554 166.884 6.60497 166.315 6.60497C165.721 6.60497 165.194 6.74425 164.738 7.02278C164.289 7.29261 163.94 7.65384 163.69 8.10646C163.44 8.55038 163.323 9.03344 163.341 9.5557H159.719C159.719 8.26749 160 7.15335 160.56 6.21328C161.121 5.27323 161.901 4.54642 162.901 4.03287C163.901 3.51932 165.065 3.26254 166.392 3.26254C167.609 3.26254 168.695 3.53237 169.652 4.07204C170.617 4.603 171.376 5.34721 171.928 6.30468C172.479 7.26215 172.755 8.37194 172.755 9.63404C172.755 10.5654 172.626 11.3401 172.368 11.9581C172.109 12.5674 171.725 13.1332 171.217 13.6555C170.708 14.169 170.083 14.7521 169.341 15.405L164.298 19.8702L164.013 19.0869H172.755V22.4293H159.719Z" fill="white"/>
<path d="M180.347 22.8472C179.407 22.8472 178.523 22.6513 177.695 22.2596C176.877 21.8679 176.169 21.3239 175.575 20.6275C174.98 19.9312 174.553 19.1217 174.294 18.199L177.683 17.2851C177.795 17.7291 177.993 18.112 178.278 18.4341C178.57 18.7561 178.907 19.0085 179.287 19.1913C179.674 19.3654 180.071 19.4524 180.476 19.4524C181.011 19.4524 181.498 19.3219 181.937 19.0608C182.386 18.7996 182.739 18.4471 182.998 18.0032C183.265 17.5593 183.399 17.0675 183.399 16.5279C183.399 15.9882 183.265 15.4963 182.998 15.0524C182.739 14.6085 182.386 14.2561 181.937 13.9949C181.498 13.7337 181.011 13.6032 180.476 13.6032C179.821 13.6032 179.287 13.7164 178.872 13.9427C178.459 14.1603 178.148 14.3692 177.942 14.5694L174.967 13.6555L175.536 3.65423H185.7V6.97055H177.476L178.717 5.79548L178.329 12.2453L177.735 11.5142C178.2 11.1312 178.73 10.8527 179.325 10.6785C179.92 10.5045 180.476 10.4174 180.994 10.4174C182.166 10.4174 183.197 10.6829 184.084 11.2139C184.981 11.7361 185.679 12.4586 186.179 13.3812C186.688 14.2951 186.943 15.3441 186.943 16.5279C186.943 17.7116 186.636 18.7822 186.024 19.7397C185.412 20.6885 184.606 21.4458 183.606 22.0115C182.606 22.5686 181.52 22.8472 180.347 22.8472Z" fill="white"/>
</g>
<defs>
<clipPath id="clip0_27_1078">
<rect width="187" height="26" fill="white"/>
</clipPath>
</defs>
</svg>
