<svg width="1004" height="434" viewBox="0 0 1004 434" fill="none" xmlns="http://www.w3.org/2000/svg">
<path opacity="0.037037" d="M895.511 155.53C863.866 168.049 835.951 240.113 779.872 240.113C648.578 240.113 748.041 59.5497 642.847 13.6908C537.653 -32.168 558.854 159.972 459.566 180.03C360.279 200.088 372.837 125.466 317.256 119.723C261.675 113.979 243.832 291.716 140.566 281.664C37.2992 271.613 57.0076 155.53 4.90816 155.53" stroke="#B77922" stroke-width="1.11111"/>
<path opacity="0.0740741" d="M899.649 161.274C868.004 173.793 840.089 245.857 784.01 245.857C652.716 245.857 752.179 65.2938 646.985 19.435C541.791 -26.4238 562.992 165.717 463.704 185.774C364.417 205.832 376.975 131.21 321.394 125.467C265.813 119.723 247.97 297.46 144.704 287.408C41.4374 277.357 61.1458 161.274 9.04635 161.274" stroke="#BA7C23" stroke-width="1.22222"/>
<path opacity="0.111111" d="M903.787 167.018C872.141 179.538 844.227 251.601 788.148 251.601C656.854 251.601 756.316 71.0379 651.123 25.1791C545.929 -20.6797 567.13 171.461 467.842 191.518C368.555 211.576 381.113 136.954 325.532 131.211C269.951 125.467 252.108 303.204 148.841 293.153C45.5751 283.101 65.2835 167.018 13.184 167.018" stroke="#BC7E25" stroke-width="1.33333"/>
<path opacity="0.148148" d="M907.925 172.762C876.279 185.281 848.365 257.345 792.286 257.345C660.991 257.345 760.454 76.7811 655.261 30.9223C550.067 -14.9365 571.267 177.204 471.98 197.261C372.693 217.319 385.251 142.698 329.67 136.954C274.089 131.21 256.246 308.947 152.979 298.896C49.713 288.844 69.4215 172.762 17.322 172.762" stroke="#BE8027" stroke-width="1.44444"/>
<path opacity="0.185185" d="M912.062 178.505C880.417 191.024 852.502 263.088 796.424 263.088C665.129 263.088 764.592 82.5243 659.399 36.6655C554.205 -9.19336 575.405 182.947 476.118 203.005C376.831 223.062 389.389 148.441 333.808 142.697C278.227 136.954 260.384 314.69 157.117 304.639C53.8509 294.588 73.5594 178.505 21.4599 178.505" stroke="#C18228" stroke-width="1.55556"/>
<path opacity="0.222222" d="M916.2 184.249C884.555 196.768 856.64 268.832 800.562 268.832C669.267 268.832 768.73 88.2684 663.537 42.4096C558.343 -3.44922 579.543 188.691 480.256 208.749C380.968 228.806 393.527 154.185 337.946 148.441C282.365 142.698 264.522 320.434 161.255 310.383C57.9889 300.332 77.6973 184.249 25.5979 184.249" stroke="#C3852A" stroke-width="1.66667"/>
<path opacity="0.259259" d="M920.338 189.992C888.693 202.511 860.778 274.575 804.7 274.575C673.405 274.575 772.868 94.0116 667.674 48.1528C562.481 2.29395 583.681 194.434 484.394 214.492C385.106 234.55 397.665 159.928 342.084 154.184C286.503 148.441 268.66 326.177 165.393 316.126C62.1268 306.075 81.8353 189.992 29.7358 189.992" stroke="#C5872C" stroke-width="1.77778"/>
<path opacity="0.296296" d="M924.476 195.735C892.831 208.254 864.916 280.318 808.838 280.318C677.543 280.318 777.006 99.7547 671.812 53.8959C566.619 8.03711 587.819 200.177 488.532 220.235C389.244 240.293 401.803 165.671 346.222 159.928C290.641 154.184 272.798 331.921 169.531 321.869C66.2648 311.818 85.9732 195.735 33.8737 195.735" stroke="#C8892D" stroke-width="1.88889"/>
<path opacity="0.333333" d="M928.614 201.479C896.969 213.998 869.054 286.062 812.975 286.062C681.681 286.062 781.144 105.499 675.95 59.6401C570.756 13.7813 591.957 205.922 492.669 225.979C393.382 246.037 405.94 171.415 350.359 165.672C294.778 159.928 276.935 337.665 173.669 327.614C70.4025 317.562 90.1109 201.479 38.0114 201.479" stroke="#CA8B2F" stroke-width="2"/>
<path opacity="0.37037" d="M932.752 207.222C901.107 219.742 873.192 291.806 817.113 291.806C685.819 291.806 785.281 111.242 680.088 65.3832C574.894 19.5244 596.095 211.665 496.807 231.722C397.52 251.78 410.078 177.159 354.497 171.415C298.916 165.671 281.073 343.408 177.807 333.357C74.5401 323.305 94.2486 207.222 42.1491 207.222" stroke="#CC8E31" stroke-width="2.11111"/>
<path opacity="0.407407" d="M936.89 212.966C905.245 225.485 877.33 297.549 821.252 297.549C689.957 297.549 789.42 116.985 684.226 71.1264C579.033 25.2676 600.233 217.408 500.946 237.466C401.658 257.523 414.217 182.902 358.636 177.158C303.054 171.415 285.211 349.151 181.945 339.1C78.6786 329.049 98.387 212.966 46.2876 212.966" stroke="#CF9032" stroke-width="2.22222"/>
<path opacity="0.444444" d="M941.028 218.71C909.383 231.229 881.468 303.293 825.389 303.293C694.095 303.293 793.558 122.729 688.364 76.8705C583.17 31.0117 604.371 223.152 505.083 243.21C405.796 263.267 418.354 188.646 362.773 182.902C307.192 177.159 289.349 354.895 186.083 344.844C82.8163 334.793 102.525 218.71 50.4253 218.71" stroke="#D19234" stroke-width="2.33333"/>
<path opacity="0.481481" d="M945.166 224.453C913.52 236.972 885.606 309.036 829.527 309.036C698.232 309.036 797.695 128.473 692.502 82.6137C587.308 36.7549 608.508 228.895 509.221 248.953C409.934 269.01 422.492 194.389 366.911 188.645C311.33 182.902 293.487 360.638 190.22 350.587C86.954 340.536 106.662 224.453 54.5629 224.453" stroke="#D39436" stroke-width="2.44444"/>
<path opacity="0.518519" d="M949.303 230.197C917.658 242.716 889.743 314.78 833.665 314.78C702.37 314.78 801.833 134.217 696.64 88.3578C591.446 42.499 612.646 234.639 513.359 254.697C414.072 274.755 426.63 200.133 371.049 194.39C315.468 188.646 297.625 366.383 194.358 356.331C91.0919 346.28 110.8 230.197 58.7009 230.197" stroke="#D69737" stroke-width="2.55556"/>
<path opacity="0.555556" d="M953.442 235.94C921.797 248.459 893.882 320.523 837.803 320.523C706.509 320.523 805.971 139.96 700.778 94.101C595.584 48.2422 616.785 240.383 517.497 260.44C418.21 280.498 430.768 205.876 375.187 200.133C319.606 194.389 301.763 372.126 198.496 362.074C95.2301 352.023 114.939 235.94 62.8391 235.94" stroke="#D89939" stroke-width="2.66667"/>
<path opacity="0.592593" d="M957.579 241.683C925.934 254.203 898.019 326.266 841.941 326.266C710.646 326.266 810.109 145.703 704.915 99.8442C599.722 53.9854 620.922 246.126 521.635 266.183C422.347 286.241 434.906 211.619 379.325 205.876C323.744 200.132 305.901 377.869 202.634 367.818C99.3678 357.766 119.076 241.683 66.9768 241.683" stroke="#DA9B3B" stroke-width="2.77778"/>
<path opacity="0.62963" d="M961.717 247.428C930.072 259.947 902.157 332.011 846.079 332.011C714.784 332.011 814.247 151.447 709.053 105.588C603.86 59.7295 625.06 251.87 525.773 271.927C426.485 291.985 439.044 217.364 383.463 211.62C327.882 205.876 310.038 383.613 206.772 373.562C103.506 363.511 123.214 247.428 71.1147 247.428" stroke="#DD9D3C" stroke-width="2.88889"/>
<path opacity="0.666667" d="M965.855 253.172C934.21 265.691 906.295 337.755 850.217 337.755C718.922 337.755 818.385 157.191 713.191 111.332C607.998 65.4736 629.198 257.614 529.911 277.672C430.623 297.729 443.182 223.108 387.601 217.364C332.02 211.621 314.176 389.357 210.91 379.306C107.644 369.255 127.352 253.172 75.2526 253.172" stroke="#DFA03E" stroke-width="3"/>
<path opacity="0.703704" d="M969.993 258.915C938.348 271.434 910.433 343.498 854.354 343.498C723.06 343.498 822.523 162.934 717.329 117.076C612.135 71.2168 633.336 263.357 534.048 283.415C434.761 303.472 447.319 228.851 391.738 223.107C336.157 217.364 318.314 395.1 215.048 385.049C111.781 374.998 131.49 258.915 79.3903 258.915" stroke="#E1A240" stroke-width="3.11111"/>
<path opacity="0.740741" d="M974.131 264.658C942.486 277.177 914.571 349.241 858.492 349.241C727.198 349.241 826.661 168.678 721.467 122.819C616.273 76.96 637.474 269.1 538.186 289.158C438.899 309.216 451.457 234.594 395.876 228.85C340.295 223.107 322.452 400.843 219.186 390.792C115.919 380.741 135.628 264.658 83.5283 264.658" stroke="#E4A441" stroke-width="3.22222"/>
<path opacity="0.777778" d="M978.269 270.401C946.624 282.92 918.709 354.984 862.63 354.984C731.336 354.984 830.799 174.421 725.605 128.562C620.411 82.7031 641.612 274.843 542.324 294.901C443.037 314.959 455.595 240.337 400.014 234.594C344.433 228.85 326.59 406.587 223.324 396.535C120.057 386.484 139.766 270.401 87.6662 270.401" stroke="#E6A643" stroke-width="3.33333"/>
<path opacity="0.814815" d="M982.407 276.145C950.762 288.665 922.847 360.728 866.768 360.728C735.474 360.728 834.937 180.165 729.743 134.306C624.549 88.4473 645.75 280.588 546.462 300.645C447.175 320.703 459.733 246.081 404.152 240.338C348.571 234.594 330.728 412.331 227.462 402.28C124.195 392.228 143.904 276.145 91.8042 276.145" stroke="#E8A945" stroke-width="3.44444"/>
<path opacity="0.851852" d="M986.544 281.888C954.899 294.408 926.984 366.472 870.906 366.472C739.611 366.472 839.074 185.908 733.881 140.049C628.687 94.1904 649.887 286.331 550.6 306.388C451.312 326.446 463.871 251.825 408.29 246.081C352.709 240.337 334.866 418.074 231.599 408.023C128.333 397.971 148.041 281.888 95.9419 281.888" stroke="#EBAB46" stroke-width="3.55556"/>
<path opacity="0.888889" d="M990.683 287.633C959.037 300.152 931.123 372.216 875.044 372.216C743.75 372.216 843.212 191.652 738.019 145.793C632.825 99.9346 654.026 292.075 554.738 312.133C455.451 332.19 468.009 257.569 412.428 251.825C356.847 246.082 339.004 423.818 235.737 413.767C132.471 403.716 152.18 287.633 100.08 287.633" stroke="#EDAD48" stroke-width="3.66667"/>
<path opacity="0.925926" d="M994.821 293.376C963.175 305.895 935.261 377.959 879.182 377.959C747.887 377.959 847.35 197.395 742.157 151.537C636.963 105.678 658.163 297.818 558.876 317.876C459.589 337.933 472.147 263.312 416.566 257.568C360.985 251.825 343.142 429.561 239.875 419.51C136.609 409.459 156.317 293.376 104.218 293.376" stroke="#EFAF4A" stroke-width="3.77778"/>
<path opacity="0.962963" d="M998.958 299.119C967.313 311.638 939.398 383.702 883.32 383.702C752.025 383.702 851.488 203.139 746.294 157.28C641.101 111.421 662.301 303.561 563.014 323.619C463.726 343.676 476.285 269.055 420.704 263.311C365.123 257.568 347.279 435.304 244.013 425.253C140.747 415.202 160.455 299.119 108.356 299.119" stroke="#F2B24B" stroke-width="3.88889"/>
<path d="M1003.1 304.863C971.451 317.382 943.536 389.446 887.458 389.446C756.163 389.446 855.626 208.883 750.433 163.024C645.239 117.165 666.439 309.305 567.152 329.363C467.864 349.421 480.423 274.799 424.842 269.056C369.261 263.312 351.418 441.049 248.151 430.997C144.885 420.946 164.593 304.863 112.494 304.863" stroke="#F4B44D" stroke-width="4"/>
</svg>
