<svg width="2536" height="970" viewBox="0 0 2536 970" fill="none" xmlns="http://www.w3.org/2000/svg">
<path opacity="0.037037" d="M2262.69 347.821C2182.67 375.959 2112.07 537.929 1970.26 537.929C1638.24 537.929 1889.76 132.096 1623.75 29.0244C1357.73 -74.0474 1411.34 357.805 1160.26 402.886C909.182 447.968 940.94 280.249 800.385 267.34C659.83 254.431 614.708 653.91 353.565 631.318C92.4225 608.727 142.262 347.821 10.5112 347.821" stroke="#B77922" stroke-width="1.11111"/>
<path opacity="0.0740741" d="M2273.16 360.729C2193.13 388.867 2122.54 550.837 1980.73 550.837C1648.7 550.837 1900.23 145.004 1634.21 41.9326C1368.2 -61.1392 1421.81 370.713 1170.73 415.795C919.647 460.876 951.405 293.157 810.85 280.248C670.295 267.339 625.173 666.818 364.03 644.227C102.887 621.636 152.726 360.729 20.9756 360.729" stroke="#BA7C23" stroke-width="1.22222"/>
<path opacity="0.111111" d="M2283.62 373.639C2203.59 401.777 2133 563.747 1991.19 563.747C1659.17 563.747 1910.69 157.915 1644.68 54.8427C1378.66 -48.2291 1432.27 383.623 1181.19 428.705C930.11 473.786 961.868 306.068 821.314 293.158C680.759 280.249 635.636 679.728 374.494 657.137C113.351 634.546 163.19 373.639 31.4394 373.639" stroke="#BC7E25" stroke-width="1.33333"/>
<path opacity="0.148148" d="M2294.08 386.547C2214.06 414.685 2143.47 576.655 2001.65 576.655C1669.63 576.655 1921.16 170.823 1655.14 67.7509C1389.12 -35.3209 1442.74 396.532 1191.66 441.613C940.574 486.694 972.332 318.976 831.777 306.067C691.223 293.157 646.1 692.636 384.957 670.045C123.815 647.454 173.654 386.547 41.9033 386.547" stroke="#BE8027" stroke-width="1.44444"/>
<path opacity="0.185185" d="M2304.55 399.457C2224.52 427.595 2153.93 589.565 2012.12 589.565C1680.1 589.565 1931.62 183.733 1665.6 80.6611C1399.59 -22.4107 1453.2 409.442 1202.12 454.523C951.038 499.604 982.796 331.886 842.241 318.977C701.686 306.068 656.564 705.546 395.421 682.955C134.278 660.364 184.118 399.457 52.3672 399.457" stroke="#C18228" stroke-width="1.55556"/>
<path opacity="0.222222" d="M2315.01 412.366C2234.99 440.504 2164.39 602.474 2022.58 602.474C1690.56 602.474 1942.09 196.641 1676.07 93.5693C1410.05 -9.50251 1463.66 422.35 1212.58 467.431C961.503 512.513 993.261 344.794 852.706 331.885C712.151 318.976 667.028 718.454 405.886 695.863C144.743 673.272 194.582 412.365 62.8315 412.365" stroke="#C3852A" stroke-width="1.66667"/>
<path opacity="0.259259" d="M2325.48 425.276C2245.45 453.414 2174.86 615.384 2033.05 615.384C1701.02 615.384 1952.55 209.551 1686.53 106.479C1420.52 3.40765 1474.13 435.26 1223.05 480.341C971.966 525.423 1003.72 357.704 863.17 344.795C722.615 331.886 677.492 731.365 416.35 708.774C155.207 686.182 205.046 425.276 73.2954 425.276" stroke="#C5872C" stroke-width="1.77778"/>
<path opacity="0.296296" d="M2335.94 438.184C2255.91 466.322 2185.32 628.292 2043.51 628.292C1711.49 628.292 1963.01 222.459 1697 119.388C1430.98 16.3159 1484.59 448.168 1233.51 493.25C982.43 538.331 1014.19 370.612 873.633 357.703C733.078 344.794 687.956 744.273 426.813 721.682C165.671 699.091 215.51 438.184 83.7593 438.184" stroke="#C8892D" stroke-width="1.88889"/>
<path opacity="0.333333" d="M2346.4 451.094C2266.38 479.232 2195.79 641.202 2053.97 641.202C1721.95 641.202 1973.48 235.37 1707.46 132.298C1441.44 29.226 1495.06 461.079 1243.98 506.16C992.895 551.241 1024.65 383.523 884.098 370.613C743.543 357.704 698.421 757.183 437.278 734.592C176.135 712.001 225.974 451.094 94.2236 451.094" stroke="#CA8B2F" stroke-width="2"/>
<path opacity="0.37037" d="M2356.87 464.002C2276.84 492.14 2206.25 654.11 2064.44 654.11C1732.42 654.11 1983.94 248.278 1717.92 145.206C1451.91 42.1342 1505.52 473.987 1254.44 519.068C1003.36 564.149 1035.12 396.431 894.562 383.522C754.007 370.612 708.885 770.091 447.742 747.5C186.599 724.909 236.439 464.002 104.688 464.002" stroke="#CC8E31" stroke-width="2.11111"/>
<path opacity="0.407407" d="M2367.33 476.913C2287.31 505.051 2216.72 667.02 2074.9 667.02C1742.88 667.02 1994.41 261.188 1728.39 158.116C1462.37 55.0444 1515.98 486.897 1264.9 531.978C1013.82 577.059 1045.58 409.341 905.026 396.432C764.471 383.523 719.349 783.001 458.206 760.41C197.063 737.819 246.902 476.912 115.152 476.912" stroke="#CF9032" stroke-width="2.22222"/>
<path opacity="0.444444" d="M2377.8 489.821C2297.77 517.959 2227.18 679.929 2085.37 679.929C1753.34 679.929 2004.87 274.096 1738.85 171.024C1472.84 67.9526 1526.45 499.805 1275.37 544.886C1024.29 589.968 1056.04 422.249 915.49 409.34C774.935 396.431 729.813 795.91 468.67 773.318C207.527 750.727 257.366 489.821 125.616 489.821" stroke="#D19234" stroke-width="2.33333"/>
<path opacity="0.481481" d="M2388.26 502.731C2308.23 530.869 2237.64 692.839 2095.83 692.839C1763.81 692.839 2015.33 287.006 1749.32 183.935C1483.3 80.8627 1536.91 512.715 1285.83 557.797C1034.75 602.878 1066.51 435.159 925.954 422.25C785.399 409.341 740.277 808.82 479.134 786.229C217.991 763.638 267.83 502.731 136.08 502.731" stroke="#D39436" stroke-width="2.44444"/>
<path opacity="0.518519" d="M2398.72 515.639C2318.7 543.777 2248.11 705.747 2106.29 705.747C1774.27 705.747 2025.8 299.915 1759.78 196.843C1493.76 93.7709 1547.38 525.623 1296.3 570.705C1045.21 615.786 1076.97 448.068 936.418 435.158C795.863 422.249 750.741 821.728 489.598 799.137C228.455 776.546 278.295 515.639 146.544 515.639" stroke="#D69737" stroke-width="2.55556"/>
<path opacity="0.555556" d="M2409.19 528.549C2329.16 556.687 2258.57 718.657 2116.76 718.657C1784.74 718.657 2036.26 312.825 1770.25 209.753C1504.23 106.681 1557.84 538.534 1306.76 583.615C1055.68 628.696 1087.44 460.978 946.882 448.069C806.328 435.159 761.205 834.638 500.062 812.047C238.92 789.456 288.759 528.549 157.008 528.549" stroke="#D89939" stroke-width="2.66667"/>
<path opacity="0.592593" d="M2419.65 541.457C2339.63 569.595 2269.03 731.565 2127.22 731.565C1795.2 731.565 2046.73 325.733 1780.71 222.661C1514.69 119.589 1568.3 551.442 1317.22 596.523C1066.14 641.604 1097.9 473.886 957.346 460.977C816.791 448.068 771.669 847.546 510.526 824.955C249.383 802.364 299.222 541.457 167.472 541.457" stroke="#DA9B3B" stroke-width="2.77778"/>
<path opacity="0.62963" d="M2430.12 554.368C2350.09 582.506 2279.5 744.476 2137.69 744.476C1805.66 744.476 2057.19 338.643 1791.17 235.571C1525.16 132.499 1578.77 564.352 1327.69 609.433C1076.61 654.515 1108.36 486.796 967.81 473.887C827.255 460.978 782.133 860.456 520.99 837.865C259.847 815.274 309.686 554.367 177.936 554.367" stroke="#DD9D3C" stroke-width="2.88889"/>
<path opacity="0.666667" d="M2440.58 567.276C2360.55 595.414 2289.96 757.384 2148.15 757.384C1816.13 757.384 2067.65 351.551 1801.64 248.479C1535.62 145.408 1589.23 577.26 1338.15 622.341C1087.07 667.423 1118.83 499.704 978.274 486.795C837.719 473.886 792.597 873.365 531.454 850.774C270.311 828.182 320.15 567.276 188.4 567.276" stroke="#DFA03E" stroke-width="3"/>
<path opacity="0.703704" d="M2451.04 580.186C2371.02 608.324 2300.43 770.294 2158.61 770.294C1826.59 770.294 2078.12 364.461 1812.1 261.39C1546.08 158.318 1599.7 590.17 1348.62 635.252C1097.54 680.333 1129.29 512.614 988.738 499.705C848.183 486.796 803.061 886.275 541.918 863.684C280.776 841.093 330.615 580.186 198.864 580.186" stroke="#E1A240" stroke-width="3.11111"/>
<path opacity="0.740741" d="M2461.51 593.094C2381.48 621.232 2310.89 783.202 2169.08 783.202C1837.06 783.202 2088.58 377.37 1822.56 274.298C1556.55 171.226 1610.16 603.079 1359.08 648.16C1108 693.241 1139.76 525.523 999.202 512.613C858.647 499.704 813.525 899.183 552.382 876.592C291.239 854.001 341.079 593.094 209.328 593.094" stroke="#E4A441" stroke-width="3.22222"/>
<path opacity="0.777778" d="M2471.97 606.004C2391.95 634.142 2321.36 796.112 2179.54 796.112C1847.52 796.112 2099.05 390.28 1833.03 287.208C1567.01 184.136 1620.62 615.989 1369.54 661.07C1118.46 706.151 1150.22 538.433 1009.67 525.524C869.111 512.614 823.989 912.093 562.846 889.502C301.703 866.911 351.543 606.004 219.792 606.004" stroke="#E6A643" stroke-width="3.33333"/>
<path opacity="0.814815" d="M2482.44 618.913C2402.41 647.051 2331.82 809.02 2190.01 809.02C1857.98 809.02 2109.51 403.188 1843.49 300.116C1577.48 197.044 1631.09 628.897 1380.01 673.978C1128.93 719.059 1160.68 551.341 1020.13 538.432C879.575 525.523 834.453 925.001 573.31 902.41C312.167 879.819 362.006 618.912 230.256 618.912" stroke="#E8A945" stroke-width="3.44444"/>
<path opacity="0.851852" d="M2492.9 631.823C2412.88 659.961 2342.28 821.931 2200.47 821.931C1868.45 821.931 2119.97 416.098 1853.96 313.026C1587.94 209.955 1641.55 641.807 1390.47 686.888C1139.39 731.97 1171.15 564.251 1030.59 551.342C890.039 538.433 844.917 937.912 583.774 915.32C322.631 892.729 372.471 631.823 240.72 631.823" stroke="#EBAB46" stroke-width="3.55556"/>
<path opacity="0.888889" d="M2503.36 644.731C2423.34 672.869 2352.75 834.839 2210.93 834.839C1878.91 834.839 2130.44 429.006 1864.42 325.935C1598.4 222.863 1652.02 654.715 1400.94 699.797C1149.86 744.878 1181.61 577.159 1041.06 564.25C900.503 551.341 855.381 950.82 594.238 928.229C333.095 905.638 382.935 644.731 251.184 644.731" stroke="#EDAD48" stroke-width="3.66667"/>
<path opacity="0.925926" d="M2513.83 657.641C2433.8 685.779 2363.21 847.749 2221.4 847.749C1889.38 847.749 2140.9 441.916 1874.89 338.845C1608.87 235.773 1662.48 667.625 1411.4 712.707C1160.32 757.788 1192.08 590.07 1051.52 577.16C910.968 564.251 865.845 963.73 604.703 941.139C343.56 918.548 393.399 657.641 261.648 657.641" stroke="#EFAF4A" stroke-width="3.77778"/>
<path opacity="0.962963" d="M2524.29 670.549C2444.27 698.687 2373.67 860.657 2231.86 860.657C1899.84 860.657 2151.37 454.825 1885.35 351.753C1619.33 248.681 1672.94 680.534 1421.86 725.615C1170.78 770.696 1202.54 602.978 1061.99 590.069C921.431 577.159 876.309 976.638 615.166 954.047C354.023 931.456 403.862 670.549 272.112 670.549" stroke="#F2B24B" stroke-width="3.88889"/>
<path d="M2534.76 683.459C2454.73 711.597 2384.14 873.567 2242.33 873.567C1910.31 873.567 2161.83 467.735 1895.81 364.663C1629.8 261.591 1683.41 693.444 1432.33 738.525C1181.25 783.606 1213.01 615.888 1072.45 602.979C931.895 590.069 886.773 989.548 625.63 966.957C364.487 944.366 414.327 683.459 282.576 683.459" stroke="#F4B44D" stroke-width="4"/>
</svg>
